HIERARCHY
ROOT Hips
{
 OFFSET 0.000000 0.000000 0.000000
 CHANNELS 6 Xposition Yposition Zposition Yrotation Xrotation Zrotation
 JOINT Chest
 {
  OFFSET 0.000000 11.395451 -0.039534
  CHANNELS 3 Yrotation Xrotation Zrotation
  JOINT Chest2
  {
   OFFSET 0.000000 9.398669 0.071813
   CHANNELS 3 Yrotation Xrotation Zrotation
   JOINT Chest3
   {
    OFFSET 0.000000 8.489801 0.000000
    CHANNELS 3 Yrotation Xrotation Zrotation
    JOINT Chest4
    {
     OFFSET 0.000000 8.489801 0.000000
     CHANNELS 3 Yrotation Xrotation Zrotation
     JOINT Neck
     {
      OFFSET 0.000000 12.404889 0.000000
      CHANNELS 3 Yrotation Xrotation Zrotation
      JOINT Head
      {
       OFFSET 0.000000 8.903270 0.092239
       CHANNELS 3 Yrotation Xrotation Zrotation
       End Site
       {
        OFFSET 0.000000 17.592497 0.007158
       }
      }
     }
     JOINT RightCollar
     {
      OFFSET -3.196775 6.966722 0.000000
      CHANNELS 3 Yrotation Xrotation Zrotation
      JOINT RightShoulder
      {
       OFFSET -15.955896 0.000000 0.000000
       CHANNELS 3 Yrotation Xrotation Zrotation
       JOINT RightElbow
       {
        OFFSET -24.792472 0.000000 0.000000
        CHANNELS 3 Yrotation Xrotation Zrotation
        JOINT RightWrist
        {
         OFFSET -20.900115 0.000000 0.025002
         CHANNELS 3 Yrotation Xrotation Zrotation
         End Site
         {
          OFFSET -16.056692 0.000000 0.000000
         }
        }
       }
      }
     }
     JOINT LeftCollar
     {
      OFFSET 3.196775 6.966722 0.000000
      CHANNELS 3 Yrotation Xrotation Zrotation
      JOINT LeftShoulder
      {
       OFFSET 15.955896 0.000000 0.000000
       CHANNELS 3 Yrotation Xrotation Zrotation
       JOINT LeftElbow
       {
        OFFSET 24.792472 0.000000 0.000000
        CHANNELS 3 Yrotation Xrotation Zrotation
        JOINT LeftWrist
        {
         OFFSET 20.900115 0.000000 0.025002
         CHANNELS 3 Yrotation Xrotation Zrotation
         End Site
         {
          OFFSET 16.056692 0.000000 0.000000
         }
        }
       }
      }
     }
    }
   }
  }
 }
 JOINT RightHip
 {
  OFFSET -9.568995 0.193718 0.019767
  CHANNELS 3 Yrotation Xrotation Zrotation
  JOINT RightKnee
  {
   OFFSET 0.000000 -56.649296 0.015402
   CHANNELS 3 Yrotation Xrotation Zrotation
   JOINT RightAnkle
   {
    OFFSET 0.000000 -41.365147 0.021264
    CHANNELS 3 Yrotation Xrotation Zrotation
    JOINT RightToe
    {
     OFFSET 0.000000 -7.465940 17.672538
     CHANNELS 3 Yrotation Xrotation Zrotation
     End Site
     {
      OFFSET 0.000000 -1.736315 7.837145
     }
    }
   }
  }
 }
 JOINT LeftHip
 {
  OFFSET 9.568995 0.193718 0.019767
  CHANNELS 3 Yrotation Xrotation Zrotation
  JOINT LeftKnee
  {
   OFFSET 0.000000 -56.649296 0.015402
   CHANNELS 3 Yrotation Xrotation Zrotation
   JOINT LeftAnkle
   {
    OFFSET 0.000000 -41.365147 0.021264
    CHANNELS 3 Yrotation Xrotation Zrotation
    JOINT LeftToe
    {
     OFFSET 0.000000 -7.465940 17.672538
     CHANNELS 3 Yrotation Xrotation Zrotation
     End Site
     {
      OFFSET 0.000000 -1.736315 7.837145
     }
    }
   }
  }
 }
}
MOTION
Frames: 11
Frame Time: 0.016667
98.747907 104.314735 92.586941 73.910691 -4.985548 -0.804573 -4.713303 5.561919 0.241792 -2.095128 2.469523 0.163884 -2.095106 2.469580 0.163878 -1.571733 1.851685 0.131357 -11.582315 16.361638 4.581689 -23.037008 -4.023977 12.441536 0.599496 0.990645 5.761740 -0.649745 -17.557693 55.929649 53.890833 -34.815460 22.880473 -10.387537 -9.023778 14.009774 12.441621 10.800158 -2.336640 -4.596620 -29.131206 -48.684547 -50.752588 -36.637756 -40.531016 15.825526 -9.278593 -12.056759 -15.356265 -4.705685 9.771111 -7.697970 17.056054 -1.797417 -4.755665 -10.089013 -4.879420 0.000000 0.000000 0.000000 18.906218 -12.057323 20.135996 8.473230 48.319966 2.281205 11.321081 -4.368706 2.386207 0.012553 0.331591 0.743914
99.043742 104.411004 93.199233 71.336671 -5.034937 -0.436554 -4.685921 5.563939 0.166251 -2.082100 2.471100 0.130047 -2.082100 2.471100 0.130047 -1.561859 1.852907 0.105945 -11.557976 16.442435 4.536246 -22.962549 -3.892021 12.333601 0.713477 0.899741 5.702034 -0.535109 -17.767315 56.027315 54.143687 -34.747116 22.625378 -10.524606 -8.961353 13.926737 12.375584 10.890073 -2.290456 -4.394292 -29.262550 -49.124918 -50.769881 -36.614594 -40.156282 15.681456 -9.311689 -12.175039 -13.593777 -4.287119 9.721145 -8.320893 16.622969 -1.734227 -3.151384 -9.956952 -4.873208 0.000000 0.000000 0.000000 16.851398 -11.496697 19.111418 5.191168 48.896736 0.692341 12.074039 -5.350571 2.169195 0.000000 0.000000 0.000000
99.340614 104.503183 93.800798 68.663942 -5.026458 -0.135015 -4.581630 5.551221 0.158490 -2.035733 2.465549 0.125238 -2.035742 2.465539 0.125247 -1.527083 1.848755 0.102145 -11.569675 16.526481 4.457084 -22.943210 -3.754360 12.174869 0.831847 0.698865 5.674948 -0.379051 -17.815602 55.967038 54.409307 -34.777304 22.310826 -10.681050 -8.947569 13.833076 12.381402 10.831834 -2.257315 -4.520001 -29.234030 -49.466524 -50.768390 -36.701441 -39.752743 15.556119 -9.356494 -12.193062 -12.456114 -3.745881 9.826647 -7.825891 16.130285 -1.674563 -1.884774 -9.781062 -4.741490 0.000000 0.000000 -0.000000 14.056851 -10.851530 18.269650 5.097557 49.270878 0.679195 11.563427 -6.071122 2.283489 -0.000000 -0.000000 0.000000
99.624546 104.596522 94.388088 65.888414 -4.961511 0.118817 -4.420300 5.536024 0.195442 -1.964563 2.458589 0.139570 -1.964568 2.458626 0.139580 -1.473766 1.843566 0.112583 -11.600082 16.598064 4.362003 -22.955326 -3.639397 11.995550 0.953468 0.453655 5.662569 -0.179815 -17.807801 55.823540 54.684879 -34.866225 21.948310 -10.850815 -8.954795 13.743463 12.431595 10.700607 -2.217909 -4.806885 -29.136459 -49.785973 -50.804023 -36.841927 -39.306382 15.452088 -9.416025 -12.153121 -11.598315 -3.141094 9.985316 -6.877947 15.547153 -1.590466 -0.650665 -9.536720 -4.570669 0.000000 -0.000000 -0.000000 10.790011 -10.172514 17.425327 6.781452 49.464775 1.613462 10.525369 -6.677998 2.481644 -0.000000 0.000000 0.000000
99.894861 104.675892 94.968797 62.944426 -4.850062 0.336328 -4.200241 5.523087 0.251075 -1.867533 2.452368 0.161499 -1.867533 2.452368 0.161499 -1.401084 1.838803 0.128605 -11.611042 16.668022 4.293822 -22.940832 -3.525189 11.859715 1.056811 0.197821 5.680769 0.078698 -17.839453 55.627028 54.892366 -34.956334 21.637023 -11.002918 -8.964570 13.690348 12.479729 10.537317 -2.168928 -4.995703 -29.032372 -50.111390 -50.909231 -36.961087 -38.890735 15.372610 -9.477982 -12.127625 -10.749750 -2.545946 10.149005 -5.949740 14.960478 -1.495646 0.765635 -9.276258 -4.428724 0.000000 0.000000 0.000000 7.833779 -9.702371 16.486008 7.915908 49.508445 2.357755 9.644488 -7.409136 2.731756 0.000000 0.000000 0.000000
100.145918 104.735378 95.546075 59.789810 -4.698592 0.501388 -3.907960 5.516029 0.324735 -1.738654 2.448683 0.190653 -1.738649 2.448632 0.190656 -1.304550 1.835920 0.149945 -11.594610 16.748530 4.270417 -22.888833 -3.386701 11.795040 1.137658 -0.071024 5.736853 0.405618 -17.931499 55.371055 54.991594 -35.039521 21.403711 -11.133006 -8.977949 13.705744 12.519921 10.342292 -2.107620 -5.006095 -28.950681 -50.456050 -51.111024 -37.011211 -38.539745 15.352591 -9.542528 -12.142873 -9.828902 -1.959697 10.310551 -5.292734 14.353887 -1.381609 2.569626 -8.984040 -4.362783 -0.000000 -0.000000 0.000000 5.386550 -9.534477 15.496589 7.740112 49.446337 2.490078 9.236615 -8.378549 3.105790 0.000000 0.000000 0.000000
100.383357 104.780895 96.116774 56.467445 -4.505462 0.622544 -3.556875 5.513308 0.415943 -1.583884 2.447104 0.226959 -1.583877 2.447093 0.226969 -1.188633 1.834742 0.176555 -11.558691 16.831838 4.273069 -22.809184 -3.240995 11.771453 1.200266 -0.347328 5.825810 0.793465 -18.066682 55.067940 55.021489 -35.118501 21.218951 -11.249303 -8.998022 13.759021 12.559826 10.116333 -2.032217 -4.918916 -28.855657 -50.806567 -51.379701 -37.032308 -38.218463 15.355499 -9.612408 -12.174805 -8.915442 -1.383394 10.472160 -4.654106 13.745118 -1.244850 4.553740 -8.666879 -4.318899 -0.000000 -0.000000 0.000000 3.245404 -9.573679 14.480968 7.016454 49.246740 2.444021 8.982440 -9.411899 3.597954 -0.000000 0.000000 0.000000
100.623426 104.815072 96.679137 53.039326 -4.263601 0.748085 -3.185726 5.508810 0.498992 -1.420124 2.444900 0.259366 -1.420124 2.444900 0.259366 -1.065970 1.833085 0.200180 -11.488556 16.901345 4.289716 -22.673902 -3.124455 11.765899 1.234393 -0.585396 5.941036 1.232572 -18.278379 54.783205 55.024680 -35.152217 21.097335 -11.337646 -9.010914 13.790556 12.571188 9.900089 -1.945390 -4.718232 -28.704688 -51.148273 -51.661325 -37.082824 -37.897987 15.276064 -9.673436 -12.215883 -7.984195 -0.895768 10.612012 -3.750297 13.269951 -1.113391 6.316276 -8.415295 -4.222434 0.000000 0.000000 0.000000 1.587330 -9.786931 13.354027 5.669580 48.849915 2.307318 8.621738 -10.301321 4.082180 0.000000 0.000000 0.000000
100.872900 104.835639 97.228610 49.515323 -3.967821 0.888044 -2.802561 5.500049 0.564862 -1.250807 2.440981 0.283991 -1.250806 2.440954 0.283986 -0.939097 1.830127 0.217954 -11.383303 16.954886 4.327891 -22.483796 -3.038981 11.792209 1.227430 -0.772317 6.083364 1.729374 -18.575321 54.535499 55.017067 -35.125541 21.045701 -11.379633 -9.019516 13.779412 12.543887 9.707037 -1.846649 -4.413335 -28.482171 -51.474050 -51.945349 -37.173739 -37.565014 15.056512 -9.720277 -12.250872 -7.003317 -0.537454 10.740448 -2.393497 12.994964 -1.007768 7.617285 -8.281685 -4.044576 -0.000000 0.000000 -0.000000 0.558014 -10.182217 12.054942 3.536234 48.243424 2.152348 8.045562 -11.036106 4.478595 -0.000000 0.000000 0.000000
101.125004 104.844864 97.769749 45.886643 -3.620822 1.022036 -2.399358 5.488178 0.622216 -1.072478 2.435942 0.304628 -1.072471 2.435935 0.304634 -0.805443 1.826421 0.232723 -11.242706 16.997824 4.381327 -22.235531 -2.976332 11.837689 1.190997 -0.918472 6.247711 2.277133 -18.944392 54.315638 54.985618 -35.053059 21.055794 -11.391768 -9.022989 13.748657 12.487597 9.524099 -1.737164 -3.996911 -28.195135 -51.799247 -52.248478 -37.293923 -37.227658 14.754411 -9.748577 -12.287434 -6.006850 -0.268041 10.856525 -0.773519 12.850438 -0.922730 8.700428 -8.224420 -3.824674 0.000000 0.000000 0.000000 0.013546 -10.761510 10.670687 0.807569 47.503029 1.971866 7.363458 -11.667834 4.819014 -0.000000 -0.000000 0.000000
101.375648 104.852181 98.314468 42.187560 -3.223156 1.152210 -1.990806 5.471447 0.672643 -0.891703 2.428857 0.322097 -0.891703 2.428857 0.322097 -0.669958 1.821178 0.245083 -11.052725 17.022806 4.418485 -21.894849 -2.960535 11.841954 1.150637 -1.014625 6.414827 2.844979 -19.382001 54.148930 54.931008 -34.940324 21.119977 -11.408762 -8.999624 13.704437 12.402853 9.350979 -1.624432 -3.429239 -27.833387 -52.145856 -52.563482 -37.472138 -36.886231 14.438461 -9.743831 -12.351127 -5.070422 -0.046544 10.925089 0.825972 12.765104 -0.855331 9.891174 -8.196619 -3.595590 0.000000 0.000000 0.000000 -0.305162 -11.483446 9.330240 -2.054048 46.683044 1.740905 6.646435 -12.118869 5.089852 0.000000 0.000000 0.000000
